<?xml version="1.0" encoding="utf-8"?>
<?xml-stylesheet type="text/xsl" href="rss1.xsl"?>
<rss version="2.0" xmlns:atom="http://www.w3.org/2005/Atom" xmlns:content="http://purl.org/rss/1.0/modules/content/" xmlns:dc="http://purl.org/dc/elements/1.1/" xmlns:media="http://search.yahoo.com/mrss/">
<channel>
 <title>Getty</title>
 <link>http://www.gettyimg.com/</link>
 <atom:link href="http://www.gettyimg.com/" rel="self" type="application/rss+xml" />

 
                <item>
                <title><![CDATA[【UPSCALED】Avril Lavigne - Mobile (Director's Cut) 1080p AI Upscaled]]></title>
                <link><![CDATA[https://sharemania.us/threads/avril-lavigne-mobile-directors-cut-1080p-ai-upscaled.234324/]]></link>
                <description><![CDATA[<article>
<blockquote class="messageText SelectQuoteContainer ugc baseHtml">
<img src="https://i.imgur.com/XDhHcW0.jpeg" class="bbCodeImage LbImage" alt="[​IMG]" data-url="https://i.imgur.com/XDhHcW0.jpeg" style=""> <img src="https://i.imgur.com/Tki4axy.jpeg" class="bbCodeImage LbImage" alt="[​IMG]" data-url="https://i.imgur.com/Tki4axy.jpeg" style=""> <img src="https://i.imgur.com/7jppO7z.jpeg" class="bbCodeImage LbImage" alt="[​IMG]" data-url="https://i.imgur.com/7jppO7z.jpeg" style=""> <img src="https://i.imgur.com/cVH86xc.jpeg" class="bbCodeImage LbImage" alt="[​IMG]" data-url="https://i.imgur.com/cVH86xc.jpeg" style=""> <img src="https://i.imgur.com/E2yRkS7.jpeg" class="bbCodeImage LbImage" alt="[​IMG]" data-url="https://i.imgur.com/E2yRkS7.jpeg" style=""> <br>
<br>
<div class="ToggleTriggerAnchor bbCodeSpoilerContainer">
<button type="button" class="button bbCodeSpoilerButton ToggleTrigger Tooltip JsOnly" data-target="> .SpoilerTarget"><span>Spoiler: <span class="SpoilerTitle">MediaInfo</span></span></button>
<div class="SpoilerTarget bbCodeSpoilerText">General<br>
File size : 1.54 GiB<br>
Duration : 3 min 32 s<br>
Overall bit rate : 62.0 Mb/s<br>
Movie name : Avril Lavigne - Mobile (Director's Cut)<br>
Writing application : Lavf60.14.101<br>
Writing library : Lavf60.14.101<br>
ErrorDetectionType : Per level 1<br>
<br>
Video<br>
ID : 1<br>
Format : HEVC<br>
Format/Info : High Efficiency Video Coding<br>
Format profile : Main@L6.2@Main<br>
Codec ID : V_MPEGH/ISO/HEVC<br>
Duration : 3 min 32 s<br>
Bit rate : 58.7 Mb/s<br>
Width : 1 920 pixels<br>
Height : 1 080 pixels<br>
Display aspect ratio : 16:9<br>
Frame rate mode : Constant<br>
Frame rate : 29.970 (30000/1001) FPS<br>
Color space : YUV<br>
Chroma subsampling : 4:2:0<br>
Bit depth : 8 bits<br>
Bits/(Pixel*Frame) : 0.944<br>
Stream size : 1.45 GiB (95%)<br>
Writing library : Lavc60.27.101 hevc_amf<br>
Default : No<br>
Forced : No<br>
Color range : Limited<br>
Transfer characteristics : BT.709<br>
Matrix coefficients : BT.709<br>
<br>
Audio<br>
ID : 2<br>
Format : PCM<br>
Format settings : Little / Signed<br>
Codec ID : A_PCM/INT/LIT<br>
Duration : 3 min 32 s<br>
Bit rate mode : Constant<br>
Bit rate : 2 117 kb/s<br>
Channel(s) : 2 channels<br>
Sampling rate : 44.1 kHz<br>
Bit depth : 24 bits<br>
Delay relative to video : -33 ms<br>
Stream size : 53.7 MiB (3%)<br>
Default : Yes<br>
Forced : No</div>
</div><br>
<div class="bbCodeBlock bbCodeVfcHH HiddenContent">
<div class="attribution type">Hidden Content:</div>
<blockquote>You must reply before you can see the hidden data contained here.</blockquote>
</div>
<div class="messageTextEndMarker">&nbsp;</div>
</blockquote>
</article>]]></description>
                <author><![CDATA[Avril1255]]></author>
                </item>

                </channel></rss>